HIERARCHY
ROOT Pelvis
{
	OFFSET 0.000000 0.000000 0.000000
	CHANNELS 6 Xposition Yposition Zposition Xrotation Yrotation Zrotation
	JOINT LeftUpLeg_virtual
	{
		OFFSET 0.000000 0.000000 0.000000
		CHANNELS 3 Xrotation Yrotation Zrotation
		JOINT LeftUpLeg
		{
			OFFSET 18.735201 -5.666702 -4.541200
			CHANNELS 3 Xrotation Yrotation Zrotation
			JOINT LeftLeg
			{
				OFFSET -0.021200 -31.938179 0.493100
				CHANNELS 3 Xrotation Yrotation Zrotation
				JOINT LeftFoot
				{
					OFFSET 0.021200 -31.938179 -4.336299
					CHANNELS 3 Xrotation Yrotation Zrotation
					JOINT LeftToeBase
					{
						OFFSET 0.943001 -26.722000 15.023500
						CHANNELS 3 Xrotation Yrotation Zrotation
						End Site
						{
							OFFSET 0 0 0
						}
					}
				}
			}
		}
	}
	JOINT RightUpLeg_virtual
	{
		OFFSET 0.000000 0.000000 0.000000
		CHANNELS 3 Xrotation Yrotation Zrotation
		JOINT RightUpLeg
		{
			OFFSET -18.735201 -5.666702 -4.541200
			CHANNELS 3 Xrotation Yrotation Zrotation
			JOINT RightLeg
			{
				OFFSET 0.018946 -31.938133 0.493100
				CHANNELS 3 Xrotation Yrotation Zrotation
				JOINT RightFoot
				{
					OFFSET -0.018946 -31.938126 -4.336299
					CHANNELS 3 Xrotation Yrotation Zrotation
					JOINT RightToeBase
					{
						OFFSET -0.943001 -26.722004 15.023500
						CHANNELS 3 Xrotation Yrotation Zrotation
						End Site
						{
							OFFSET 0 0 0
						}
					}
				}
			}
		}
	}
	JOINT Hips_virtual
	{
		OFFSET 0.000000 0.000000 0.000000
		CHANNELS 3 Xrotation Yrotation Zrotation
		JOINT Hips
		{
			OFFSET -0.000000 -0.000000 -0.000000
			CHANNELS 3 Xrotation Yrotation Zrotation
			JOINT Spine
			{
				OFFSET 0.000000 10.199997 -0.299500
				CHANNELS 3 Xrotation Yrotation Zrotation
				JOINT Spine1
				{
					OFFSET 0.000000 11.900002 -1.516600
					CHANNELS 3 Xrotation Yrotation Zrotation
					JOINT Spine2
					{
						OFFSET 0.000000 13.600006 -2.842500
						CHANNELS 3 Xrotation Yrotation Zrotation
						JOINT Neck_virtual
						{
							OFFSET 0.000000 0.000000 0.000000
							CHANNELS 3 Xrotation Yrotation Zrotation
							JOINT Neck
							{
								OFFSET 0.000000 9.624100 -2.890100
								CHANNELS 3 Xrotation Yrotation Zrotation
								JOINT Head
								{
									OFFSET 0.000000 14.068802 -1.351900
									CHANNELS 3 Xrotation Yrotation Zrotation
									End Site
									{
										OFFSET 0 0 0
									}
								}
							}
						}
						JOINT LeftShoulder_virtual
						{
							OFFSET 0.000000 0.000000 0.000000
							CHANNELS 3 Xrotation Yrotation Zrotation
							JOINT LeftShoulder
							{
								OFFSET 15.263000 10.923401 -0.547700
								CHANNELS 3 Xrotation Yrotation Zrotation
								JOINT LeftArm
								{
									OFFSET 25.438599 -2.830597 -13.032500
									CHANNELS 3 Xrotation Yrotation Zrotation
									JOINT LeftForeArm
									{
										OFFSET 29.960503 0.000000 0.000000
										CHANNELS 3 Xrotation Yrotation Zrotation
										JOINT LeftHand
										{
											OFFSET 27.849251 0.000000 0.000000
											CHANNELS 3 Xrotation Yrotation Zrotation
											End Site
											{
												OFFSET 0 0 0
											}
										}
									}
								}
							}
						}
						JOINT RightShoulder_virtual
						{
							OFFSET 0.000000 0.000000 0.000000
							CHANNELS 3 Xrotation Yrotation Zrotation
							JOINT RightShoulder
							{
								OFFSET -15.263000 10.923401 -0.547700
								CHANNELS 3 Xrotation Yrotation Zrotation
								JOINT RightArm
								{
									OFFSET -25.438599 -2.830597 -13.032500
									CHANNELS 3 Xrotation Yrotation Zrotation
									JOINT RightForeArm
									{
										OFFSET -29.960503 0.000000 0.000000
										CHANNELS 3 Xrotation Yrotation Zrotation
										JOINT RightHand
										{
											OFFSET -27.849251 0.000000 0.000000
											CHANNELS 3 Xrotation Yrotation Zrotation
											End Site
											{
												OFFSET 0 0 0
											}
										}
									}
								}
							}
						}
					}
				}
			}
		}
	}
}
MOTION
Frames: 9
Frame Time: 0.03333333
1.107351 110.134918 3.815884 0.000000 0.000000 0.000000 -34.110316 -3.615914 3.147912 -80.201113 -0.278243 20.573845 48.119495 15.459365 -13.113407 -7.257186 19.868433 -12.695379 0.000000 0.000000 0.000000 -39.386713 0.509763 -0.467698 -77.577582 2.700340 -14.012867 53.536546 -16.793618 4.910599 -5.472166 -20.397882 5.887724 0.000000 0.000000 0.000000 -21.718021 -7.581187 0.285381 -72.469714 4.928857 9.548721 1.003602 -3.805783 1.073659 -0.396395 -1.923270 0.110846 0.000000 0.000000 0.000000 -0.086409 -1.654436 0.101655 -2.071726 0.030342 -0.403642 0.000000 0.000000 0.000000 1.693555 -1.431839 0.879151 0.026879 -3.852924 -6.032317 2.648954 -28.724863 -55.459801 12.243111 -64.900171 2.317620 0.000000 0.000000 0.000000 2.582291 -2.530341 1.266274 1.372918 -1.208560 10.056922 9.338304 28.225492 42.913133 62.729004 81.911624 -58.078478 0.000000 0.000000 0.000000 
0.938845 109.822693 4.214373 0.000000 0.000000 0.000000 -34.559234 -4.703476 4.291659 -80.409269 -1.289405 21.331879 49.057858 16.183426 -14.847988 -6.394094 21.281789 -14.551756 0.000000 0.000000 0.000000 -38.780018 2.555073 0.016680 -76.918312 3.107157 -13.877986 53.316440 -18.654085 5.811900 -5.822225 -22.472852 5.611021 0.000000 0.000000 0.000000 -21.965596 -10.063384 -0.331028 -69.202739 6.598868 10.099314 1.737016 -4.501593 0.879705 0.098363 -1.964284 0.384534 0.000000 0.000000 0.000000 -0.489746 -2.110296 -0.017745 -2.241715 -0.021862 -0.375986 0.000000 0.000000 0.000000 1.049596 -1.644757 1.014386 0.595089 -2.515185 -6.028045 4.590982 -30.519799 -57.866189 15.003397 -66.560549 3.185953 0.000000 0.000000 0.000000 2.405229 -2.833570 1.380210 1.537792 -2.195429 11.033845 11.109661 29.881477 42.059530 99.933276 82.954690 -94.873465 0.000000 0.000000 0.000000 
0.593657 109.562401 2.964680 0.000000 0.000000 0.000000 -33.590829 -6.603453 5.096636 -79.449368 -2.139179 22.099926 50.183811 16.259274 -14.893094 -5.715779 21.360734 -14.448218 0.000000 0.000000 0.000000 -39.077097 2.651603 -0.326977 -77.147499 3.359984 -14.123540 53.737015 -19.378963 6.814878 -5.531108 -23.561678 6.357800 0.000000 0.000000 0.000000 -20.004468 -9.409606 0.955696 -70.574938 9.366582 11.441309 3.247958 -5.040177 0.882945 -0.054602 -2.245119 0.918720 0.000000 0.000000 0.000000 -0.310308 -2.619617 -0.033571 -2.343766 -0.016890 -0.369420 0.000000 0.000000 0.000000 0.584211 -1.688629 1.099384 0.313055 -2.294633 -6.271702 4.489888 -30.506972 -54.767561 16.590214 -65.817083 5.781730 0.000000 0.000000 0.000000 2.276551 -3.020207 1.270499 1.871678 -3.813912 10.679421 12.289835 29.234791 42.059912 128.900177 81.729962 -124.297804 0.000000 0.000000 0.000000 
1.231885 109.581596 3.350958 0.000000 0.000000 0.000000 -32.984910 -4.330085 6.006885 -78.892810 -1.757891 22.674992 49.725058 16.276209 -14.828030 -5.820745 21.404355 -14.527864 0.000000 0.000000 0.000000 -38.742107 2.618122 -1.588244 -76.735789 3.890461 -15.094397 52.999983 -20.088590 6.489156 -5.744458 -24.218481 5.340943 0.000000 0.000000 0.000000 -21.516491 -9.003375 0.515655 -67.815289 8.073609 11.224688 1.406039 -5.306875 1.187597 -0.310226 -1.913394 0.600502 0.000000 0.000000 0.000000 -0.491714 -2.847353 -0.074266 -2.532949 -0.201348 -0.371458 0.000000 0.000000 0.000000 0.637276 -1.845522 0.958419 -0.185662 -1.775307 -6.093167 3.961148 -31.051242 -54.315983 16.085591 -66.226908 5.721491 0.000000 0.000000 0.000000 2.244820 -2.883225 1.326242 1.630318 -3.305655 11.875719 11.260707 31.577126 40.810988 136.860571 81.145632 -132.561978 0.000000 0.000000 0.000000 
1.773852 109.616440 2.471029 0.000000 0.000000 0.000000 -32.150831 -5.145643 6.227168 -78.249605 -1.973676 23.088346 48.449943 16.819525 -14.539108 -6.836486 21.733232 -13.921293 0.000000 0.000000 0.000000 -38.931832 3.958017 -1.500672 -76.839177 4.303991 -15.091791 52.653949 -19.245991 7.034638 -5.779460 -23.714016 6.892209 0.000000 0.000000 0.000000 -21.553345 -7.544437 0.980117 -72.913130 8.218588 12.632764 2.568825 -5.358366 0.929439 -0.555526 -2.130592 0.950048 0.000000 0.000000 0.000000 0.138922 -3.115037 -0.054378 -2.615702 -0.028677 -0.290367 0.000000 0.000000 0.000000 0.988824 -2.221457 0.954899 -0.342711 -0.975105 -6.530991 0.811803 -31.822456 -55.849770 13.661736 -68.601839 3.760475 0.000000 0.000000 0.000000 2.091494 -3.060424 1.572726 1.760526 -3.590268 11.844688 13.334752 28.714768 41.138909 148.288734 80.519932 -143.800890 0.000000 0.000000 0.000000 
1.578752 109.888802 3.852957 0.000000 0.000000 0.000000 -32.819165 -3.838364 6.604451 -78.838524 -1.876184 23.219066 48.130437 16.973602 -14.269209 -7.020320 21.757846 -13.538757 0.000000 0.000000 0.000000 -39.128238 3.647270 -1.458782 -77.038530 4.186372 -14.917248 52.526918 -19.655620 6.579512 -6.222796 -23.780314 5.829431 0.000000 0.000000 0.000000 -23.750620 -10.639709 0.221665 -70.340362 10.379453 12.603088 1.635763 -5.754679 0.887397 0.112382 -1.749960 0.984962 0.000000 0.000000 0.000000 -0.174565 -3.153808 -0.503284 -2.325350 -0.238206 -0.438224 0.000000 0.000000 0.000000 0.763188 -2.047035 0.721157 0.009733 -0.692042 -6.163865 1.663308 -31.474123 -56.107381 16.344153 -69.493616 5.886079 0.000000 0.000000 0.000000 2.269383 -2.741591 1.387963 1.959591 -3.389817 11.109129 11.830011 31.725136 41.222777 151.336419 79.421399 -146.172578 0.000000 0.000000 0.000000 
1.454457 109.894348 3.188044 0.000000 0.000000 0.000000 -32.311842 -3.634368 4.975228 -78.436062 -0.931587 22.061391 50.136703 16.167305 -14.866431 -5.538409 21.281985 -14.694006 0.000000 0.000000 0.000000 -40.354253 3.031528 -1.481831 -78.237850 4.123195 -14.744922 52.566191 -19.225866 6.138922 -5.841941 -23.314999 5.479548 0.000000 0.000000 0.000000 -23.187408 -9.787113 0.091280 -69.201366 11.199399 11.508715 1.476236 -5.125091 0.842758 0.623942 -2.226862 0.906601 0.000000 0.000000 0.000000 0.150108 -3.229715 -0.590275 -2.376354 -0.252547 -0.438121 0.000000 0.000000 0.000000 0.977977 -1.845210 0.703037 0.166361 -0.654331 -5.699814 0.647165 -32.519009 -54.992537 15.387861 -71.116947 5.774989 0.000000 0.000000 0.000000 2.530197 -2.463149 1.399904 2.067233 -3.491571 11.665779 10.291953 32.086644 41.910095 157.420069 79.099109 -152.211749 0.000000 0.000000 0.000000 
0.869638 110.171524 2.484636 0.000000 0.000000 0.000000 -33.615114 -4.017417 4.029640 -79.586614 -0.834869 21.223098 49.538863 15.796841 -14.554173 -5.796284 20.894969 -14.695676 0.000000 0.000000 0.000000 -40.137692 3.668087 -0.368553 -78.060531 3.770223 -14.009036 53.477489 -18.362830 6.515131 -4.902270 -22.712892 6.598361 0.000000 0.000000 0.000000 -24.880653 -14.099885 -0.988881 -70.728105 12.180163 14.198164 1.385043 -5.175168 1.656859 -0.144333 -2.180623 1.014305 0.000000 0.000000 0.000000 -0.144751 -3.277282 -0.751690 -2.515540 -0.204192 -0.394869 0.000000 0.000000 0.000000 1.006883 -1.985987 0.634595 -0.053681 0.185767 -6.090003 4.205233 -33.993790 -53.042040 21.138314 -73.125487 11.531233 0.000000 0.000000 0.000000 2.901046 -2.015310 1.229760 1.638999 -2.955368 11.863349 8.803140 29.789009 41.842852 161.784232 78.369966 -157.119623 0.000000 0.000000 0.000000 
1.235648 110.422356 2.363516 0.000000 0.000000 0.000000 -33.338594 -4.521861 4.176629 -79.386346 -1.022327 21.449195 50.409989 15.759362 -14.460673 -4.811552 20.958326 -14.632171 0.000000 0.000000 0.000000 -39.567812 1.357917 -0.751546 -77.565896 3.037393 -13.968797 51.606809 -18.284678 6.565235 -6.004364 -22.774632 7.007296 0.000000 0.000000 0.000000 -24.056266 -12.929233 -0.114036 -72.013744 12.167938 15.740697 1.604659 -5.267675 0.935111 0.157833 -2.121864 0.819686 0.000000 0.000000 0.000000 0.124810 -3.244224 -1.055322 -2.381686 -0.240901 -0.495882 0.000000 0.000000 0.000000 1.034982 -1.946490 0.342753 0.009749 -0.137953 -6.565164 4.431213 -32.709817 -52.653457 19.412586 -71.477035 9.769699 0.000000 0.000000 0.000000 2.886439 -1.891798 1.157513 1.703439 -2.600925 11.408484 7.331528 29.901796 41.773324 163.240456 78.435509 -158.616158 0.000000 0.000000 0.000000 
